<?xml version="1.0" encoding="utf-8"?><svg version="1.2" baseProfile="tiny" id="LargeVar2.x.3.3_1_"	 xmlns="http://www.w3.org/2000/svg" xmlns:xlink="http://www.w3.org/1999/xlink" x="0px" y="0px" viewBox="0 0 422 107" xml:space="preserve"><g id="Mad_Scientist_x0D__Technologies"><g><path d="M150.129,13.826l8.168,31.102H154.3l-4.943-19.003l-8.509,20.151l-8.535-20.318l-5.011,19.169h-3.974l8.168-31.102 l9.348,22.253L150.129,13.826z"/><path d="M177.183,25.592h4.078v19.336h-4.078v-3.844c-1.984,2.922-4.445,4.383-7.383,4.383c-2.547,0-4.723-1-6.527-3	s-2.707-4.43-2.707-7.289c0-2.703,0.91-5.066,2.73-7.09s3.957-3.035,6.41-3.035c1.516,0,2.953,0.414,4.313,1.242 s2.414,1.906,3.164,3.234V25.592z M177.746,35.318c0-1.766-0.634-3.277-1.902-4.535c-1.268-1.258-2.786-1.887-4.555-1.887 c-1.722,0-3.225,0.625-4.508,1.875s-1.925,2.719-1.925,4.406c0,1.828,0.626,3.383,1.878,4.664s2.771,1.922,4.555,1.922 c1.769,0,3.287-0.637,4.555-1.91C177.111,38.58,177.746,37.068,177.746,35.318z"/><path d="M202.397,14.506h4.031v30.422h-3.984v-4.031c-1.925,3.047-4.444,4.57-7.558,4.57c-2.519,0-4.678-1.008-6.478-3.023 c-1.799-2.016-2.699-4.438-2.699-7.266c0-2.766,0.915-5.145,2.746-7.137c1.831-1.992,4.014-2.988,6.549-2.988 c1.518,0,2.933,0.422,4.248,1.266s2.363,1.945,3.146,3.305V14.506z M202.866,35.225c0-1.734-0.634-3.238-1.902-4.512 c-1.268-1.273-2.778-1.91-4.531-1.91c-1.816,0-3.354,0.621-4.614,1.863c-1.26,1.242-1.89,2.762-1.89,4.559 c0,1.719,0.642,3.223,1.925,4.512c1.283,1.289,2.778,1.934,4.485,1.934c1.815,0,3.357-0.625,4.625-1.875 C202.232,38.545,202.866,37.021,202.866,35.225z"/><path d="M242.138,18.396l-3.305,2.648c-0.873-0.906-1.664-1.582-2.373-2.027c-0.71-0.445-1.734-0.668-3.075-0.668 c-1.466,0-2.654,0.331-3.566,0.993s-1.368,1.515-1.368,2.559c0,0.904,0.398,1.702,1.195,2.396 c0.796,0.693,2.153,1.452,4.071,2.276c1.918,0.824,3.412,1.591,4.48,2.302s1.945,1.495,2.632,2.354 c0.687,0.859,1.197,1.765,1.532,2.717c0.336,0.953,0.503,1.959,0.503,3.021c0,2.482-0.902,4.598-2.707,6.347 s-3.988,2.623-6.551,2.623c-2.5,0-4.707-0.684-6.621-2.051s-3.387-3.418-4.418-6.152l4.078-1.148 c1.484,3.359,3.758,5.039,6.82,5.039c1.484,0,2.719-0.444,3.703-1.332c0.984-0.888,1.477-2.009,1.477-3.365 c0-0.81-0.258-1.624-0.773-2.442c-0.517-0.817-1.158-1.491-1.924-2.021c-0.767-0.53-1.986-1.137-3.657-1.823 c-1.673-0.686-2.959-1.314-3.86-1.884c-0.902-0.57-1.683-1.249-2.341-2.038s-1.141-1.573-1.446-2.354s-0.459-1.616-0.459-2.506 c0-2.139,0.859-3.962,2.578-5.469s3.805-2.26,6.258-2.26c1.625,0,3.273,0.352,4.945,1.055S241.028,16.959,242.138,18.396z"/><path d="M260.813,39.021v4.664c-2.078,1.188-4.094,1.781-6.047,1.781c-2.672,0-5.012-1.004-7.02-3.012s-3.012-4.332-3.012-6.973 c0-3,1-5.488,3-7.465s4.508-2.965,7.523-2.965c1.797,0,3.648,0.469,5.555,1.406v4.547c-2.047-1.313-3.984-1.969-5.813-1.969 c-1.688,0-3.164,0.594-4.43,1.781s-1.898,2.578-1.898,4.172c0,1.797,0.594,3.309,1.781,4.535s2.641,1.84,4.359,1.84 C256.563,41.365,258.563,40.584,260.813,39.021z"/><path d="M262.824,19.24c0-0.844,0.313-1.574,0.938-2.191c0.624-0.617,1.367-0.926,2.227-0.926c0.844,0,1.573,0.309,2.191,0.926 c0.617,0.617,0.926,1.348,0.926,2.191c0,0.859-0.309,1.594-0.926,2.203c-0.618,0.609-1.348,0.914-2.191,0.914 c-0.859,0-1.603-0.305-2.227-0.914C263.137,20.834,262.824,20.1,262.824,19.24z M263.973,25.592h4.031v19.336h-4.031V25.592z"/><path d="M292.21,36.045h-16.5c0.359,1.984,1.176,3.434,2.449,4.348s2.66,1.371,4.16,1.371c2.313,0,4.25-0.961,5.813-2.883 l2.977,2.25c-2.234,2.891-5.227,4.336-8.977,4.336c-2.875,0-5.281-0.984-7.219-2.953s-2.906-4.414-2.906-7.336 c0-2.734,0.98-5.105,2.941-7.113s4.355-3.012,7.184-3.012c2.781,0,5.164,1.02,7.148,3.059S292.241,32.795,292.21,36.045z  M276.132,32.787h11.813c-1.313-2.656-3.25-3.984-5.813-3.984C279.335,28.803,277.335,30.131,276.132,32.787z"/><path d="M294.947,44.928V25.592h3.984v3.211c1.172-1.297,2.234-2.246,3.188-2.848s2.016-0.902,3.188-0.902 c1.75,0,3.246,0.578,4.488,1.734s1.863,2.547,1.863,4.172v13.969h-4.078V32.154c0-1.047-0.34-1.914-1.02-2.602 s-1.543-1.031-2.59-1.031c-1.359,0-2.531,0.574-3.516,1.723s-1.477,2.535-1.477,4.16v10.523H294.947z"/><path d="M316.833,19.967h4.078v5.625h4.031v3.727h-4.031v15.609h-4.078V29.318h-3.211v-3.773h3.211V19.967z"/><path d="M326.578,19.24c0-0.844,0.313-1.574,0.938-2.191s1.367-0.926,2.227-0.926c0.844,0,1.574,0.309,2.191,0.926 s0.926,1.348,0.926,2.191c0,0.859-0.309,1.594-0.926,2.203s-1.348,0.914-2.191,0.914c-0.859,0-1.602-0.305-2.227-0.914 S326.578,20.1,326.578,19.24z M327.727,25.592h4.031v19.336h-4.031V25.592z"/><path d="M348.324,27.889l-2.719,2.391c-0.703-0.5-1.313-0.879-1.828-1.137s-1.125-0.387-1.828-0.387 c-1.656,0-2.484,0.609-2.484,1.828c0,0.875,1.051,1.725,3.152,2.549c2.101,0.824,3.612,1.728,4.535,2.711 c0.922,0.983,1.383,2.169,1.383,3.559c0,1.624-0.665,3.04-1.992,4.25c-1.328,1.21-2.892,1.814-4.688,1.814 c-2.734,0-4.978-1.266-6.727-3.797l3.211-1.547c1.125,1.094,2.297,1.641,3.516,1.641c0.844,0,1.582-0.23,2.215-0.691 s0.949-0.996,0.949-1.605c0-1.078-1.11-2.048-3.328-2.909c-2.219-0.861-3.754-1.733-4.605-2.615 c-0.853-0.882-1.277-1.972-1.277-3.268c0-1.608,0.605-2.947,1.816-4.017c1.21-1.069,2.73-1.604,4.559-1.604 S346.059,25.998,348.324,27.889z"/><path d="M352.749,19.967h4.078v5.625h4.031v3.727h-4.031v15.609h-4.078V29.318h-3.211v-3.773h3.211V19.967z"/><path fill="#0099FF" d="M188.499,55.068h18.258v4.078h-7.125v25.781h-4.031V59.146h-7.102V55.068z"/><path fill="#0099FF" d="M226.181,76.045h-16.5c0.359,1.984,1.176,3.434,2.449,4.348s2.66,1.371,4.16,1.371 c2.313,0,4.25-0.961,5.813-2.883l2.977,2.25c-2.234,2.891-5.227,4.336-8.977,4.336c-2.875,0-5.281-0.984-7.219-2.953 s-2.906-4.414-2.906-7.336c0-2.734,0.98-5.105,2.941-7.113s4.355-3.012,7.184-3.012c2.781,0,5.164,1.02,7.148,3.059 S226.212,72.795,226.181,76.045z M210.103,72.787h11.813c-1.313-2.656-3.25-3.984-5.813-3.984 C213.306,68.803,211.306,70.131,210.103,72.787z"/><path fill="#0099FF" d="M245.136,79.021v4.664c-2.078,1.188-4.094,1.781-6.047,1.781c-2.672,0-5.012-1.004-7.02-3.012 s-3.012-4.332-3.012-6.973c0-3,1-5.488,3-7.465s4.508-2.965,7.523-2.965c1.797,0,3.648,0.469,5.555,1.406v4.547 c-2.047-1.313-3.984-1.969-5.813-1.969c-1.688,0-3.164,0.594-4.43,1.781s-1.898,2.578-1.898,4.172 c0,1.797,0.594,3.309,1.781,4.535s2.641,1.84,4.359,1.84C240.886,81.365,242.886,80.584,245.136,79.021z"/><path fill="#0099FF" d="M249.889,54.506h4.078v14.25c1.125-1.297,2.176-2.238,3.152-2.824c0.976-0.586,2.168-0.879,3.574-0.879 c1.641,0,3.059,0.629,4.254,1.887s1.793,2.762,1.793,4.512v13.477h-4.078V72.6c0-1.219-0.309-2.195-0.926-2.93 c-0.618-0.734-1.434-1.102-2.449-1.102c-1.469,0-2.723,0.555-3.762,1.664c-1.04,1.109-1.559,2.453-1.559,4.031v10.664h-4.078 V54.506z"/><path fill="#0099FF" d="M270.813,84.928V65.592h3.984v3.211c1.172-1.297,2.234-2.246,3.188-2.848s2.016-0.902,3.188-0.902 c1.75,0,3.246,0.578,4.488,1.734s1.863,2.547,1.863,4.172v13.969h-4.078V72.154c0-1.047-0.34-1.914-1.02-2.602 s-1.543-1.031-2.59-1.031c-1.359,0-2.531,0.574-3.516,1.723s-1.477,2.535-1.477,4.16v10.523H270.813z"/><path fill="#0099FF" d="M291.268,75.178c0-2.641,1.043-4.988,3.129-7.043s4.48-3.082,7.184-3.082c2.781,0,5.211,1.012,7.289,3.035 s3.117,4.387,3.117,7.09c0,2.719-1.02,5.113-3.059,7.184s-4.395,3.105-7.066,3.105c-2.859,0-5.34-1.023-7.441-3.07 S291.268,77.943,291.268,75.178z M308.049,75.189c0-1.644-0.625-3.072-1.875-4.285c-1.25-1.214-2.734-1.82-4.453-1.82 c-1.766,0-3.285,0.614-4.559,1.844c-1.273,1.229-1.91,2.696-1.91,4.402c0,1.628,0.645,3.053,1.934,4.274 c1.289,1.221,2.801,1.831,4.535,1.831c1.688,0,3.164-0.626,4.43-1.878C307.416,78.305,308.049,76.85,308.049,75.189z"/><path fill="#0099FF" d="M316.668,54.506h4.078v30.422h-4.078V54.506z"/><path fill="#0099FF" d="M325.312,75.178c0-2.641,1.043-4.988,3.129-7.043s4.479-3.082,7.184-3.082c2.78,0,5.21,1.012,7.289,3.035 c2.077,2.023,3.117,4.387,3.117,7.09c0,2.719-1.02,5.113-3.059,7.184s-4.395,3.105-7.066,3.105c-2.859,0-5.341-1.023-7.441-3.07 C326.361,80.35,325.312,77.943,325.312,75.178z M342.093,75.189c0-1.644-0.626-3.072-1.875-4.285 c-1.251-1.214-2.735-1.82-4.453-1.82c-1.767,0-3.286,0.614-4.559,1.844c-1.274,1.229-1.91,2.696-1.91,4.402 c0,1.628,0.645,3.053,1.934,4.274c1.289,1.221,2.801,1.831,4.535,1.831c1.688,0,3.164-0.626,4.43-1.878 C341.46,78.305,342.093,76.85,342.093,75.189z"/><path fill="#0099FF" d="M366.251,65.592h3.984v18.563c0,2.734-0.941,5.059-2.824,6.973s-4.16,2.871-6.832,2.871 c-2.031,0-3.898-0.551-5.602-1.652s-2.953-2.777-3.75-5.027h4.219c1.266,2.094,3.023,3.141,5.273,3.141 c1.531,0,2.836-0.551,3.914-1.652s1.617-2.426,1.617-3.973v-3.656c-1.969,2.859-4.453,4.289-7.453,4.289 c-2.469,0-4.621-1.02-6.457-3.059s-2.754-4.449-2.754-7.23s0.895-5.164,2.684-7.148s3.918-2.977,6.387-2.977 c3.188,0,5.719,1.539,7.594,4.617V65.592z M366.813,75.225c0-1.813-0.629-3.328-1.887-4.547s-2.816-1.828-4.676-1.828 c-1.703,0-3.203,0.633-4.5,1.898s-1.945,2.727-1.945,4.383c0,1.797,0.641,3.344,1.922,4.641s2.805,1.945,4.57,1.945 c1.797,0,3.332-0.633,4.605-1.898S366.813,77.021,366.813,75.225z"/><path fill="#0099FF" d="M375.644,59.24c0-0.844,0.313-1.574,0.938-2.191s1.367-0.926,2.227-0.926c0.844,0,1.574,0.309,2.191,0.926 s0.926,1.348,0.926,2.191c0,0.859-0.309,1.594-0.926,2.203s-1.348,0.914-2.191,0.914c-0.859,0-1.602-0.305-2.227-0.914 S375.644,60.1,375.644,59.24z M376.792,65.592h4.031v19.336h-4.031V65.592z"/><path fill="#0099FF" d="M405.989,76.045h-16.5c0.359,1.984,1.176,3.434,2.449,4.348s2.66,1.371,4.16,1.371 c2.313,0,4.25-0.961,5.813-2.883l2.977,2.25c-2.234,2.891-5.227,4.336-8.977,4.336c-2.875,0-5.281-0.984-7.219-2.953 s-2.906-4.414-2.906-7.336c0-2.734,0.98-5.105,2.941-7.113s4.355-3.012,7.184-3.012c2.781,0,5.164,1.02,7.148,3.059 S406.021,72.795,405.989,76.045z M389.911,72.787h11.813c-1.313-2.656-3.25-3.984-5.813-3.984 C393.114,68.803,391.114,70.131,389.911,72.787z"/><path fill="#0099FF" d="M422.109,67.889l-2.719,2.391c-0.703-0.5-1.313-0.879-1.828-1.137s-1.125-0.387-1.828-0.387 c-1.657,0-2.484,0.609-2.484,1.828c0,0.875,1.05,1.725,3.152,2.549c2.101,0.824,3.612,1.729,4.535,2.711 c0.921,0.983,1.383,2.17,1.383,3.559c0,1.624-0.665,3.04-1.992,4.25c-1.329,1.21-2.892,1.814-4.688,1.814 c-2.735,0-4.978-1.266-6.727-3.797l3.211-1.547c1.125,1.094,2.297,1.641,3.516,1.641c0.844,0,1.582-0.23,2.215-0.691 s0.949-0.996,0.949-1.605c0-1.078-1.11-2.048-3.328-2.909c-2.22-0.861-3.755-1.733-4.605-2.615 c-0.853-0.883-1.277-1.972-1.277-3.268c0-1.608,0.604-2.947,1.816-4.018c1.21-1.069,2.73-1.604,4.559-1.604 S419.843,65.998,422.109,67.889z"/></g></g><g id="Icon_1_"><g id="Shape_6_copy_4"><circle fill-rule="evenodd" fill="#0099FF" cx="53.375" cy="53.303" r="52.625"/></g><g id="Shape_8"><circle fill-rule="evenodd" fill="#FFFFFF" cx="53" cy="67.5" r="38.5"/></g><g id="Shape_8_copy_xA0_Image_1_" display="none"><image display="inline" width="60" height="60" id="Shape_8_copy_xA0_Image" xlink:href="9748E167.png"  transform="matrix(1 0 0 1 23 47)"></image></g><g id="Shape_6_copy_4_1_"><circle fill-rule="evenodd" fill="#0099FF" cx="53.375" cy="76.303" r="30"/></g><g id="Shape_8_copy_2"><circle fill-rule="evenodd" fill="#FFFFFF" cx="53" cy="89.5" r="17.325"/></g></g></svg>