<?xml version="1.0" standalone="no"?>
<!DOCTYPE svg PUBLIC "-//W3C//DTD SVG 20010904//EN"
 "http://www.w3.org/TR/2001/REC-SVG-20010904/DTD/svg10.dtd">
<svg version="1.0" xmlns="http://www.w3.org/2000/svg"
 width="700.000000pt" height="700.000000pt" viewBox="0 0 700.000000 700.000000"
 preserveAspectRatio="xMidYMid meet">
<metadata>
Created by potrace 1.14, written by Peter Selinger 2001-2017
</metadata>
<g transform="translate(0.000000,700.000000) scale(0.100000,-0.100000)"
fill="#000000" stroke="none">
<path d="M3295 6844 c-151 -12 -335 -37 -464 -64 -1312 -265 -2346 -1299
-2611 -2610 -50 -248 -64 -388 -64 -670 0 -546 104 -997 339 -1475 431 -875
1211 -1514 2155 -1764 103 -27 373 -81 403 -81 7 0 -20 17 -59 38 -284 151
-483 403 -565 717 -21 79 -24 112 -23 265 0 157 3 185 27 275 124 460 527 791
1000 821 523 33 1002 -315 1133 -824 32 -121 42 -311 24 -433 -33 -228 -142
-448 -303 -612 -86 -88 -161 -144 -271 -203 -44 -24 -76 -44 -69 -44 36 0 308
56 433 90 569 154 1061 440 1485 865 548 547 878 1235 966 2015 17 148 17 552
0 700 -68 607 -283 1157 -636 1636 -554 749 -1377 1228 -2300 1339 -126 15
-499 27 -600 19z m375 -1804 c332 -25 624 -105 919 -251 720 -356 1214 -1039
1338 -1849 22 -144 24 -509 5 -650 -44 -307 -127 -570 -263 -830 -293 -559
-789 -981 -1392 -1186 -135 -46 -142 -42 -20 11 321 139 595 362 805 656 82
114 206 359 248 489 140 434 128 895 -32 1300 -145 367 -397 678 -723 896
-560 372 -1286 420 -1890 125 -865 -423 -1277 -1407 -974 -2326 16 -49 63
-157 105 -240 205 -412 532 -721 959 -906 111 -48 100 -50 -32 -5 -826 278
-1451 983 -1622 1828 -38 190 -46 271 -46 498 1 250 14 369 66 579 231 938
990 1653 1938 1826 220 41 398 51 611 35z"/>
</g>
</svg>
